<svg width="32" height="32" viewBox="0 0 32 32" xmlns="http://www.w3.org/2000/svg" xmlns:xlink="http://www.w3.org/1999/xlink"><defs><path id="a" d="M.267.364h19v13h-19z"/></defs><g fill="none" fill-rule="evenodd"><circle fill="#CCCDD1" cx="16" cy="16" r="16"/><g transform="translate(6 9)"><mask id="b" fill="#fff"><use xlink:href="#a"/></mask><path d="M7.873 9.647V4.08l4.945 2.784-4.945 2.783zM17.201.761C15.714.364 9.767.364 9.767.364s-5.947 0-7.434.382A2.401 2.401 0 00.658 2.398C.267 3.85.267 6.864.267 6.864s0 3.028.391 4.465c.22.796.86 1.423 1.675 1.637 1.502.398 7.434.398 7.434.398s5.947 0 7.434-.383a2.354 2.354 0 001.674-1.636c.392-1.453.392-4.466.392-4.466s.015-3.028-.392-4.481A2.354 2.354 0 0017.201.76z" fill="#000" mask="url(#b)"/></g></g></svg>