<svg height='100px' width='100px'  fill="#812ce5" xmlns:x="http://ns.adobe.com/Extensibility/1.0/" xmlns:i="http://ns.adobe.com/AdobeIllustrator/10.0/" xmlns:graph="http://ns.adobe.com/Graphs/1.0/" xmlns="http://www.w3.org/2000/svg" xmlns:xlink="http://www.w3.org/1999/xlink" version="1.1" x="0px" y="0px" viewBox="0 0 100 100" style="enable-background:new 0 0 100 100;" xml:space="preserve"><g><g i:extraneous="self"><g><path d="M82.5,65.5c-1.4-0.8-3.1-0.3-3.9,1C72.7,76.7,61.7,83.1,50,83.1c-17.4,0-31.6-13.5-32.9-30.5l3.9,3.9     c0.6,0.6,1.3,0.8,2,0.8s1.4-0.3,2-0.8c1.1-1.1,1.1-2.9,0-4l-8.8-8.8c-1.1-1.1-2.9-1.1-4,0l-8.8,8.8c-1.1,1.1-1.1,2.9,0,4     c1.1,1.1,2.9,1.1,4,0l4.1-4.1c1.2,20.3,18,36.4,38.6,36.4c13.7,0,26.6-7.4,33.5-19.4C84.3,68,83.8,66.3,82.5,65.5z"></path><path d="M96.7,43.6c-1.1-1.1-2.9-1.1-4,0l-4.1,4.1c-1.2-20.3-18-36.4-38.6-36.4c-13.8,0-26.6,7.4-33.5,19.4     c-0.8,1.4-0.3,3.1,1,3.8c1.4,0.8,3.1,0.3,3.8-1C27.2,23.3,38.2,16.9,50,16.9c17.4,0,31.7,13.5,32.9,30.6l-3.9-3.9     c-1.1-1.1-2.9-1.1-4,0c-1.1,1.1-1.1,2.9,0,4l8.8,8.8c0.6,0.6,1.3,0.8,2,0.8c0.7,0,1.4-0.3,2-0.8l8.8-8.8     C97.8,46.5,97.8,44.7,96.7,43.6z"></path><path d="M31.6,45.9c-1,0.1-1.7,1-1.7,2v4.3c0,1,0.7,1.8,1.7,2l3.7,0.5c0.5,1.1,0.6,1.4,1,2.5l-2.2,3c-0.6,0.8-0.5,1.9,0.2,2.6     l3,3c0.7,0.7,1.8,0.8,2.6,0.2l3-2.2c1.1,0.5,1.4,0.6,2.5,1l0.5,3.7c0.1,1,1,1.7,2,1.7h4.3c1,0,1.8-0.7,2-1.7l0.5-3.7     c1.1-0.5,1.4-0.6,2.5-1l3,2.2c0.8,0.6,1.9,0.5,2.6-0.2l3-3c0.7-0.7,0.8-1.8,0.2-2.6l-2.2-3c0.5-1.1,0.6-1.4,1-2.5l3.7-0.5     c1-0.1,1.7-1,1.7-2v-4.3c0-1-0.7-1.8-1.7-2l-3.7-0.5c-0.5-1.1-0.6-1.4-1-2.5l2.2-3c0.6-0.8,0.5-1.9-0.2-2.6l-3-3     c-0.7-0.7-1.8-0.8-2.6-0.2l-3,2.2c-1.1-0.5-1.4-0.6-2.5-1l-0.5-3.7c-0.1-1-1-1.7-2-1.7h-4.3c-1,0-1.8,0.7-2,1.7l-0.5,3.7     c-1.1,0.5-1.4,0.6-2.5,1l-3-2.2c-0.8-0.6-1.9-0.5-2.6,0.2l-3,3c-0.7,0.7-0.8,1.8-0.2,2.6l2.2,3c-0.5,1.1-0.6,1.4-1,2.5L31.6,45.9     z M50,42.5c4.2,0,7.5,3.4,7.5,7.5s-3.4,7.5-7.5,7.5c-4.2,0-7.5-3.4-7.5-7.5S45.8,42.5,50,42.5z"></path></g></g></g></svg>