<svg xmlns="http://www.w3.org/2000/svg" viewBox="0 0 762 186"><defs><style>.cls-1{fill:#fff;}</style></defs><g id="PyTorchVideo"><path class="cls-1" d="M209.36,102.11l-8.36.1v21.65h-6.3V62.36h15.45c16.23,0,24,7.87,24,19.19C234.16,95,224.61,101.92,209.36,102.11ZM210,68.17H201V96.41l8.75-.2c11.62-.2,17.91-4.82,17.91-14.37C227.66,73.09,221.46,68.17,210,68.17Z"/><path class="cls-1" d="M262.2,123.37l-3.64,9.74c-4.13,11-8.46,14.17-14.56,14.17a20.92,20.92,0,0,1-8.76-2.07l1.87-5.61a14.22,14.22,0,0,0,6.89,2c3.44,0,6-1.87,9.25-10.43l3.05-8L238.69,78.79h6.59L259.45,116l13.87-37.2h6.4Z"/><path class="cls-1" d="M300.48,68.26v55.6h-6.29V68.26H272.54v-5.9h49.59v5.9Z"/><path class="cls-1" d="M340.14,125.14c-12.5,0-21.75-9.25-21.75-23.72S328,77.51,340.63,77.51s21.65,9.25,21.65,23.72S352.64,125.14,340.14,125.14Zm.2-42.12c-9.55,0-15.84,7.58-15.84,18.21,0,11,6.39,18.4,15.94,18.4s15.84-7.58,15.84-18.21C356.28,90.4,349.88,83,340.34,83Z"/><path class="cls-1" d="M377.73,123.86h-6.1V78.79l6.1-1.28v9.65c2.95-5.81,7.38-9.65,13.29-9.65a16.39,16.39,0,0,1,7.87,2.07l-1.58,5.71a13.4,13.4,0,0,0-6.88-2c-4.73,0-9.16,3.54-12.7,11.61Z"/><path class="cls-1" d="M422.8,125.14c-13.58,0-22-9.74-22-23.72s9.35-23.91,22.14-23.91A25.67,25.67,0,0,1,437,81.35l-1.57,5.51a22.83,22.83,0,0,0-12.5-3.64c-9.74,0-15.84,7.28-15.84,18,0,11,6.39,18.2,15.94,18.2a23.26,23.26,0,0,0,12.49-3.74l1.28,5.61A26.92,26.92,0,0,1,422.8,125.14Z"/><path class="cls-1" d="M473.87,123.86V94.73c0-7.87-3.15-11.41-9.64-11.41-5.22,0-10.23,2.66-14,6.4v34.14h-6.1V57.54l6.1-1.28V84.7C455,80,460.88,77.51,465.9,77.51,474.66,77.51,480,83.12,480,93v30.9Z"/><path class="cls-1" d="M517.66,123.86h-7.38l-22.53-61.5h6.39l20,55,19.88-55h6.39Z"/><path class="cls-1" d="M550.63,68.46c-2.76,0-4.13-2.16-4.13-4.53a4.13,4.13,0,1,1,8.26,0C554.76,66.3,553.38,68.46,550.63,68.46Zm-3,55.4V78.79l6.1-1.28v46.35Z"/><path class="cls-1" d="M596.88,57.54l6.1-1.28v67.6h-6.1v-4.23a19.43,19.43,0,0,1-13.09,5.51c-12.1,0-20.17-9.74-20.17-23.42,0-14,9.35-23.91,22.34-23.91a27.38,27.38,0,0,1,10.92,2.46ZM585.66,83.32c-9.64,0-15.74,7.67-15.74,18.3,0,10.43,5.8,17.91,15,17.91a17.77,17.77,0,0,0,12-5V86.76A18.6,18.6,0,0,0,585.66,83.32Z"/><path class="cls-1" d="M618.43,102c.2,10.13,6.3,17.41,15.74,17.41a24.3,24.3,0,0,0,13.09-3.74l1.18,5.61A27.68,27.68,0,0,1,634,125.14c-13,0-21.75-9.74-21.75-23.42,0-14.17,9-24.21,21.26-24.21,9.93,0,16.43,6.5,16.43,16.63a27.21,27.21,0,0,1-1,7.19l-30.5.19Zm25.39-5.42a12.87,12.87,0,0,0,.1-2c0-6.89-3.74-11.62-10.83-11.62-8.07,0-13.28,6.2-14.27,13.68Z"/><path class="cls-1" d="M678.26,125.14c-12.5,0-21.75-9.25-21.75-23.72s9.65-23.91,22.24-23.91,21.65,9.25,21.65,23.72S690.76,125.14,678.26,125.14Zm.2-42.12c-9.55,0-15.85,7.58-15.85,18.21,0,11,6.4,18.4,15.95,18.4s15.84-7.58,15.84-18.21C694.4,90.4,688,83,678.46,83Z"/><path class="cls-1" d="M132.15,93.93l-9.89-4.79-9.43,4.68L123,98.68c-.09.06-53.81,27-53.95,27.08V72.84l8.48,4.06V67.5l-16.5-8v79.54l81.23-40.27-10.07-4.86Z"/><polygon class="cls-1" points="148.68 66.18 139.29 71.05 112.57 84.46 103.16 89.18 85.55 98.02 85.55 80.74 85.55 71.38 85.55 45.1 118.15 59.33 127.55 54.7 77.52 31.78 77.52 67.5 77.52 76.9 77.52 102.05 77.52 111.32 85.55 107.34 112.83 93.82 122.26 89.14 158.76 71.05 148.68 66.18"/><path class="cls-1" d="M133.36,67.42a4.2,4.2,0,1,0-4.2-4.2A4.2,4.2,0,0,0,133.36,67.42Z"/></g></svg>