<svg xmlns="http://www.w3.org/2000/svg" viewBox="0 0 200 200"><defs><style>.cls-1{fill:#c3c;}.cls-2{fill:#812ce5;}</style></defs><g id="PyTorchVideo"><path class="cls-1" d="M122.71,107.15l-9.89-4.79L103.39,107l10.16,4.87c-.09.06-53.81,27-53.95,27.07V86.05l8.48,4.07v-9.4l-16.5-8v79.54L132.81,112l-10.07-4.87Z"/><polygon class="cls-2" points="139.24 79.4 129.86 84.27 103.14 97.68 93.72 102.4 76.11 111.24 76.11 93.96 76.11 84.6 76.11 58.32 108.71 72.55 118.11 67.92 68.08 45 68.08 80.72 68.08 90.12 68.08 115.27 68.08 124.54 76.11 120.56 103.39 107.03 112.82 102.36 149.32 84.27 139.24 79.4"/><path class="cls-2" d="M123.92,80.64a4.2,4.2,0,1,0-4.2-4.2A4.2,4.2,0,0,0,123.92,80.64Z"/></g></svg>