<svg height='100px' width='100px'  fill="#812ce5" xmlns="http://www.w3.org/2000/svg" xmlns:xlink="http://www.w3.org/1999/xlink" viewBox="0 0 32 32" version="1.1" x="0px" y="0px"><title>Book, education, library, locker, notebook, school, university icon</title><desc>Created with Sketch.</desc><g stroke="none" stroke-width="1" fill="none" fill-rule="evenodd"><path d="M26,3 C26.5128358,3 26.9355072,3.38604019 26.9932723,3.88337887 L27,4 L27,28 C27,28.5128358 26.6139598,28.9355072 26.1166211,28.9932723 L26,29 L6,29 C5.48716416,29 5.06449284,28.6139598 5.00672773,28.1166211 L5,28 L5,4 C5,3.48716416 5.38604019,3.06449284 5.88337887,3.00672773 L6,3 L26,3 Z M25,21 L7,21 L7,27 L25,27 L25,21 Z M18,23 C18.5522847,23 19,23.4477153 19,24 C19,24.5128358 18.6139598,24.9355072 18.1166211,24.9932723 L18,25 L14,25 C13.4477153,25 13,24.5522847 13,24 C13,23.4871642 13.3860402,23.0644928 13.8833789,23.0067277 L14,23 L18,23 Z M25,13 L7,13 L7,19 L25,19 L25,13 Z M18,15 C18.5522847,15 19,15.4477153 19,16 C19,16.5128358 18.6139598,16.9355072 18.1166211,16.9932723 L18,17 L14,17 C13.4477153,17 13,16.5522847 13,16 C13,15.4871642 13.3860402,15.0644928 13.8833789,15.0067277 L14,15 L18,15 Z M25,5 L7,5 L7,11 L25,11 L25,5 Z M18,7 C18.5522847,7 19,7.44771525 19,8 C19,8.51283584 18.6139598,8.93550716 18.1166211,8.99327227 L18,9 L14,9 C13.4477153,9 13,8.55228475 13,8 C13,7.48716416 13.3860402,7.06449284 13.8833789,7.00672773 L14,7 L18,7 Z" fill="#812ce5" fill-rule="nonzero"></path></g></svg>