<svg height='100px' width='100px'  fill="#812ce5" xmlns="http://www.w3.org/2000/svg" xmlns:xlink="http://www.w3.org/1999/xlink" version="1.1" x="0px" y="0px" viewBox="0 0 100 100" style="enable-background:new 0 0 100 100;" xml:space="preserve"><rect x="-204.7" y="-135" style="" width="85.7" height="71.3" fill="none"></rect><text transform="matrix(1 0 0 1 -204.6665 -68.2031)" style="" font-family="&apos;Admira-Font-Outline-NEW-29&apos;" font-size="72px"></text><g><path d="M28,56.3c-1.1,0-2,0.9-2,2v10c0,1.1,0.9,2,2,2s2-0.9,2-2v-10C30,57.2,29.1,56.3,28,56.3z"></path><path d="M75.1,85h-10c-1.1,0-2,0.9-2,2s0.9,2,2,2h10.1c1.1,0,2-0.9,2-2S76.2,85,75.1,85z"></path><path d="M55.1,85h-10c-1.1,0-2,0.9-2,2s0.9,2,2,2h10c1.1,0,2-0.9,2-2S56.2,85,55.1,85z"></path><path d="M36.4,83.8c-2.5-1.4-4.5-3.7-5.6-6.4c-0.4-1-1.6-1.5-2.6-1.1s-1.5,1.6-1.1,2.6c1.4,3.5,4,6.5,7.3,8.4   c0.3,0.2,0.6,0.3,1,0.3c0.7,0,1.4-0.4,1.7-1C37.7,85.6,37.4,84.4,36.4,83.8z"></path><path d="M28.7,36.4c-1.1-0.2-2.1,0.5-2.3,1.5c-0.2,1.2-0.3,2.3-0.3,3.5v6.9c0,1.1,0.9,2,2,2s2-0.9,2-2v-6.9c0-0.9,0.1-1.8,0.3-2.7   C30.5,37.7,29.8,36.6,28.7,36.4z"></path><path d="M84,29.6c0.5-1,0.2-2.2-0.8-2.7c-1.7-1-3.6-1.5-5.6-1.8c-0.5-9-8-16-17.1-16H27.4C17.9,9,10,16.5,10,25.9V58   c0,9.4,7.9,17,17.4,17h33.3C70.1,75,78,67.4,78,58V29c1,0.3,2.3,0.7,3.4,1.3c0.3,0.2,0.6,0.3,0.9,0.3C83.1,30.6,83.7,30.2,84,29.6z    M60.6,71H27.4C20.1,71,14,65.2,14,58V25.9C14,18.7,20.1,13,27.4,13h33.3c6.8,0,12.4,5,13.1,12h-1.1c-1.1,0-2,0.9-2,2s0.9,2,2,2H74   v29C74,65.2,67.9,71,60.6,71z"></path><path d="M90,53.8c-1.1,0-2,0.9-2,2v10c0,1.1,0.9,2,2,2s2-0.9,2-2v-10C92,54.7,91.1,53.8,90,53.8z"></path><path d="M42.6,25C42.6,25,42.6,25,42.6,25c-3.8,0-7.5,1.2-10.5,3.6c-0.9,0.7-1,1.9-0.3,2.7c0.4,0.5,1,0.7,1.6,0.7   c0.4,0,0.9-0.2,1.3-0.5c2.3-1.8,5-2.8,8-2.8c1.1,0,2-0.8,2-1.9C44.6,25.8,43.7,25,42.6,25z"></path><path d="M89.9,73.8c-1.1-0.2-2.1,0.5-2.4,1.5c-0.6,2.8-2.2,5.4-4.4,7.2c-0.9,0.7-1,2-0.3,2.8c0.4,0.5,1,0.7,1.6,0.7   c0.4,0,0.9-0.1,1.3-0.4c3-2.4,5-5.8,5.8-9.5C91.7,75.1,91,74.1,89.9,73.8z"></path><path d="M90.7,35.2c-0.4-1-1.6-1.5-2.6-1.1c-1,0.4-1.5,1.6-1,2.6c0.6,1.5,1,3.1,1,4.8v4.4c0,1.1,0.9,2,2,2s2-0.9,2-2v-4.4   C92,39.3,91.5,37.2,90.7,35.2z"></path><path d="M62.6,25h-10c-1.1,0-2,0.9-2,2s0.9,2,2,2h10c1.1,0,2-0.9,2-2S63.7,25,62.6,25z"></path></g></svg>