<svg width="25" height="6" viewBox="0 0 25 6" xmlns="http://www.w3.org/2000/svg" xmlns:xlink="http://www.w3.org/1999/xlink"><defs><path id="a" d="M0 .481h4.817V5.25H0z"/><path id="c" d="M.684.481H5.5V5.25H.684z"/><path id="e" d="M.61.481h4.816V5.25H.61z"/></defs><g fill="none" fill-rule="evenodd"><mask id="b" fill="#fff"><use xlink:href="#a"/></mask><path d="M0 2.866C0 1.549 1.079.48 2.408.48c1.33 0 2.409 1.068 2.409 2.385 0 1.317-1.078 2.384-2.409 2.384C1.078 5.25 0 4.183 0 2.866" fill-opacity=".5" fill="#8C8C8C" mask="url(#b)"/><g transform="translate(9)"><mask id="d" fill="#fff"><use xlink:href="#c"/></mask><path d="M.684 2.866C.684 1.549 1.762.48 3.093.48A2.395 2.395 0 015.5 2.866 2.395 2.395 0 013.093 5.25c-1.33 0-2.41-1.067-2.41-2.384" fill-opacity=".5" fill="#8C8C8C" mask="url(#d)"/></g><g transform="translate(19)"><mask id="f" fill="#fff"><use xlink:href="#e"/></mask><path d="M.61 2.866C.61 1.549 1.688.48 3.02.48a2.395 2.395 0 012.407 2.385A2.395 2.395 0 013.02 5.25C1.689 5.25.61 4.183.61 2.866" fill-opacity=".5" fill="#8C8C8C" mask="url(#f)"/></g></g></svg>