<svg xmlns="http://www.w3.org/2000/svg" viewBox="0 0 300 244.2"><path fill="#2D2D2D" d="M94.72 243.142c112.5 0 174-93.2 174-174 0-2.6-.1-5.3-.2-7.9 11.9-8.6 22.3-19.4 30.5-31.7-11 4.9-22.7 8.1-35.1 9.6 12.6-7.6 22.3-19.5 26.9-33.8-11.8 7-24.9 12.1-38.8 14.8-11.2-11.9-27-19.3-44.6-19.3-33.8 0-61.1 27.4-61.1 61.1 0 4.8.5 9.5 1.6 13.9-50.8-2.6-95.9-26.9-126-63.9-5.3 9-8.3 19.5-8.3 30.7 0 21.2 10.8 39.9 27.2 50.9-10-.3-19.5-3.1-27.7-7.6v.8c0 29.6 21.1 54.3 49.1 59.9-5.1 1.4-10.5 2.2-16.1 2.2-3.9 0-7.8-.4-11.5-1.1 7.8 24.3 30.4 42 57.1 42.5-20.9 16.4-47.3 26.2-75.9 26.2-4.9 0-9.8-.3-14.6-.8 26.8 17.4 59 27.5 93.5 27.5"/></svg>