<svg xmlns="http://www.w3.org/2000/svg" viewBox="0.6 539.9 487.3 120.2"><path fill="#c3c" d="M63.1 567.3l-6.6 6.6c10.8 10.8 10.8 28.2 0 38.8-10.8 10.8-28.2 10.8-38.8 0-10.8-10.8-10.8-28.2 0-38.8l17.1-17.1 2.4-2.4v-12.9l-25.8 25.8c-14.4 14.4-14.4 37.6 0 52s37.6 14.4 51.7 0c14.4-14.5 14.4-37.6 0-52z"/><circle fill="#EE4C2C" cx="50.2" cy="560.9" r="4.8"/><g fill="#FFF"><path d="M129.8 600.3h-11.1v28.5h-8.4v-81.1h20.4c21.3 0 31.5 10.5 31.5 25.2.3 18.1-12.3 27.4-32.4 27.4zm.9-44.5H119v37.3l11.4-.3c15.3-.3 23.7-6.3 23.7-18.9 0-11.8-8.4-18.1-23.4-18.1zm69.1 72.7l-4.8 12.9c-5.4 14.4-11.1 18.6-19.2 18.6-4.5 0-7.8-1.2-11.4-2.7l2.4-7.5c2.7 1.5 5.7 2.7 9 2.7 4.5 0 7.8-2.4 12.3-13.8l3.9-10.5-23.1-58.6h8.7l18.6 49 18.3-49h8.4l-23.1 58.9z"/><path d="M250.3 555.8v73.3h-8.4v-73.3h-28.5V548h65.2v7.8h-28.3zm52 74.8c-16.5 0-28.5-12.3-28.5-31.2s12.6-31.5 29.4-31.5 28.5 12.3 28.5 31.2c-.3 18.9-12.9 31.5-29.4 31.5zm.3-55.2c-12.6 0-20.7 9.9-20.7 24 0 14.4 8.4 24.3 21 24.3s20.7-9.9 20.7-24c0-14.7-8.4-24.3-21-24.3zm49.2 53.7h-8.1v-59.5l8.1-1.8v12.6c3.9-7.5 9.6-12.6 17.4-12.6 3.9 0 7.5 1.2 10.5 2.7l-2.1 7.5c-2.7-1.5-5.7-2.7-9-2.7-6.3 0-12 4.8-16.8 15.3v38.5zm59.5 1.5c-18 0-29.1-12.9-29.1-31.2 0-18.6 12.3-31.5 29.1-31.5 7.2 0 13.5 1.8 18.6 5.1l-2.1 7.2c-4.5-3-10.2-4.8-16.5-4.8-12.9 0-20.7 9.6-20.7 23.7 0 14.4 8.4 24 21 24 6 0 12-1.8 16.5-4.8l1.8 7.5c-5.4 3-11.7 4.8-18.6 4.8zm68.2-1.5v-38.5c0-10.5-4.2-15-12.6-15-6.9 0-13.5 3.6-18.3 8.4v45.1h-8.1v-87.4l8.1-1.8v37.6c6.3-6.3 14.1-9.3 20.7-9.3 11.4 0 18.6 7.5 18.6 20.4v40.6h-8.4z"/></g></svg>