<svg xmlns="http://www.w3.org/2000/svg" viewBox="0 0 105 105"><path d="M52.54 2.44c-27.61 0-50 22.39-50 50 0 22.09 14.33 40.83 34.2 47.44 2.5.46 3.41-1.09 3.41-2.41 0-1.19-.04-4.33-.07-8.5-13.91 3.02-16.84-6.7-16.84-6.7-2.27-5.78-5.55-7.31-5.55-7.31-4.54-3.1.34-3.04.34-3.04 5.02.35 7.66 5.15 7.66 5.15 4.46 7.64 11.7 5.43 14.55 4.15.45-3.23 1.75-5.43 3.17-6.68-11.1-1.26-22.78-5.55-22.78-24.71 0-5.46 1.95-9.92 5.15-13.42-.51-1.26-2.23-6.35.49-13.23 0 0 4.2-1.34 13.75 5.13 3.99-1.11 8.27-1.66 12.52-1.68 4.25.02 8.52.57 12.52 1.68 9.55-6.47 13.74-5.13 13.74-5.13 2.73 6.88 1.01 11.97.5 13.23 3.2 3.5 5.14 7.96 5.14 13.42 0 19.21-11.69 23.43-22.83 24.67 1.8 1.54 3.39 4.6 3.39 9.26 0 6.68-.06 12.08-.06 13.72 0 1.34.9 2.89 3.44 2.4 19.85-6.62 34.16-25.35 34.16-47.44 0-27.61-22.39-50-50-50z" fill-rule="evenodd" clip-rule="evenodd" fill="#c3c"/></svg>