<svg version="1.1" id="Layer_1" xmlns="http://www.w3.org/2000/svg" x="0" y="0" viewBox="0 0 181.13 105" xml:space="preserve"><style>.st0{fill:#ffa800}.st1{fill:#ffdd3d}</style><path class="st0" d="M26.84 52.6a25.544 25.544 0 012.02-10.01c.65-1.54 1.45-3 2.37-4.37.92-1.37 1.98-2.64 3.14-3.81L16.92 16.96C7.8 26.08 2.16 38.68 2.16 52.6S7.8 79.12 16.92 88.24l17.45-17.45c-4.65-4.66-7.53-11.09-7.53-18.19z"/><path class="st1" d="M52.56 26.87c6.84 0 13.03 2.68 17.64 7.03l14.23-20.35C75.74 6.45 64.65 2.19 52.56 2.19c-13.92 0-26.52 5.64-35.64 14.76L34.37 34.4c4.66-4.65 11.09-7.53 18.19-7.53zM70.2 71.29c-4.61 4.35-10.8 7.03-17.64 7.03-7.1 0-13.53-2.88-18.19-7.53L16.92 88.24C26.04 97.36 38.64 103 52.56 103c12.04 0 23.09-4.23 31.76-11.27L70.2 71.29z"/><path class="st0" d="M164.44 16.96l-17.45 17.45a25.635 25.635 0 017.53 18.19c0 14.21-11.52 25.72-25.72 25.72-7.1 0-13.53-2.88-18.19-7.53L93.16 88.24c9.12 9.12 21.72 14.76 35.64 14.76 27.84 0 50.4-22.57 50.4-50.4 0-13.92-5.64-26.52-14.76-35.64z"/><path class="st1" d="M103.07 52.6c0-14.21 11.52-25.72 25.72-25.72 7.1 0 13.53 2.88 18.19 7.53l17.45-17.45C155.31 7.84 142.71 2.2 128.79 2.2c-27.84 0-50.4 22.57-50.4 50.4 0 13.92 5.64 26.52 14.76 35.64l17.45-17.45c-4.65-4.66-7.53-11.09-7.53-18.19z"/></svg>