<svg height="100" width="100" fill="#812ce5" xmlns="http://www.w3.org/2000/svg" viewBox="0 0 100 100"><path d="M82.5 65.5c-1.4-.8-3.1-.3-3.9 1C72.7 76.7 61.7 83.1 50 83.1c-17.4 0-31.6-13.5-32.9-30.5l3.9 3.9c.6.6 1.3.8 2 .8s1.4-.3 2-.8c1.1-1.1 1.1-2.9 0-4l-8.8-8.8c-1.1-1.1-2.9-1.1-4 0l-8.8 8.8c-1.1 1.1-1.1 2.9 0 4s2.9 1.1 4 0l4.1-4.1c1.2 20.3 18 36.4 38.6 36.4 13.7 0 26.6-7.4 33.5-19.4.7-1.4.2-3.1-1.1-3.9zm14.2-21.9c-1.1-1.1-2.9-1.1-4 0l-4.1 4.1c-1.2-20.3-18-36.4-38.6-36.4-13.8 0-26.6 7.4-33.5 19.4-.8 1.4-.3 3.1 1 3.8 1.4.8 3.1.3 3.8-1C27.2 23.3 38.2 16.9 50 16.9c17.4 0 31.7 13.5 32.9 30.6L79 43.6c-1.1-1.1-2.9-1.1-4 0s-1.1 2.9 0 4l8.8 8.8c.6.6 1.3.8 2 .8s1.4-.3 2-.8l8.8-8.8c1.2-1.1 1.2-2.9.1-4z"/><path d="M31.6 45.9c-1 .1-1.7 1-1.7 2v4.3c0 1 .7 1.8 1.7 2l3.7.5c.5 1.1.6 1.4 1 2.5l-2.2 3c-.6.8-.5 1.9.2 2.6l3 3c.7.7 1.8.8 2.6.2l3-2.2c1.1.5 1.4.6 2.5 1l.5 3.7c.1 1 1 1.7 2 1.7h4.3c1 0 1.8-.7 2-1.7l.5-3.7c1.1-.5 1.4-.6 2.5-1l3 2.2c.8.6 1.9.5 2.6-.2l3-3c.7-.7.8-1.8.2-2.6l-2.2-3c.5-1.1.6-1.4 1-2.5l3.7-.5c1-.1 1.7-1 1.7-2v-4.3c0-1-.7-1.8-1.7-2l-3.7-.5c-.5-1.1-.6-1.4-1-2.5l2.2-3c.6-.8.5-1.9-.2-2.6l-3-3c-.7-.7-1.8-.8-2.6-.2l-3 2.2c-1.1-.5-1.4-.6-2.5-1l-.5-3.7c-.1-1-1-1.7-2-1.7h-4.3c-1 0-1.8.7-2 1.7l-.5 3.7c-1.1.5-1.4.6-2.5 1l-3-2.2c-.8-.6-1.9-.5-2.6.2l-3 3c-.7.7-.8 1.8-.2 2.6l2.2 3c-.5 1.1-.6 1.4-1 2.5l-3.7.5zM50 42.5c4.2 0 7.5 3.4 7.5 7.5s-3.4 7.5-7.5 7.5c-4.2 0-7.5-3.4-7.5-7.5s3.3-7.5 7.5-7.5z"/></svg>