<svg xmlns="http://www.w3.org/2000/svg" viewBox="0 0 763 186"><defs><style>.cls-1{fill:#812ce5}</style></defs><g id="PyTorchVideo"><path d="M209.36 102.11l-8.36.1v21.65h-6.3v-61.5h15.45c16.23 0 24 7.87 24 19.19.01 13.45-9.54 20.37-24.79 20.56zm.64-33.94h-9v28.24l8.75-.2c11.62-.2 17.91-4.82 17.91-14.37 0-8.75-6.2-13.67-17.66-13.67zm52.2 55.2l-3.64 9.74c-4.13 11-8.46 14.17-14.56 14.17a20.92 20.92 0 01-8.76-2.07l1.87-5.61a14.22 14.22 0 006.89 2c3.44 0 6-1.87 9.25-10.43l3.05-8-17.61-44.38h6.59L259.45 116l13.87-37.2h6.4z"/><path d="M300.48 68.26v55.6h-6.29v-55.6h-21.65v-5.9h49.59v5.9zm39.66 56.88c-12.5 0-21.75-9.25-21.75-23.72s9.61-23.91 22.24-23.91 21.65 9.25 21.65 23.72-9.64 23.91-22.14 23.91zm.2-42.12c-9.55 0-15.84 7.58-15.84 18.21 0 11 6.39 18.4 15.94 18.4s15.84-7.58 15.84-18.21c0-11.02-6.4-18.42-15.94-18.42zm37.39 40.84h-6.1V78.79l6.1-1.28v9.65c2.95-5.81 7.38-9.65 13.29-9.65a16.39 16.39 0 017.87 2.07l-1.58 5.71a13.4 13.4 0 00-6.88-2c-4.73 0-9.16 3.54-12.7 11.61zm45.07 1.28c-13.58 0-22-9.74-22-23.72s9.35-23.91 22.14-23.91A25.67 25.67 0 01437 81.35l-1.57 5.51a22.83 22.83 0 00-12.5-3.64c-9.74 0-15.84 7.28-15.84 18 0 11 6.39 18.2 15.94 18.2a23.26 23.26 0 0012.49-3.74l1.28 5.61a26.92 26.92 0 01-14 3.85zm51.07-1.28V94.73c0-7.87-3.15-11.41-9.64-11.41-5.22 0-10.23 2.66-14 6.4v34.14h-6.1V57.54l6.1-1.28V84.7c4.77-4.7 10.65-7.19 15.67-7.19 8.76 0 14.1 5.61 14.1 15.49v30.9z"/><path class="cls-1" d="M517.66 123.86h-7.38l-22.53-61.5h6.39l20 55 19.88-55h6.39zm32.97-55.4c-2.76 0-4.13-2.16-4.13-4.53a4.13 4.13 0 118.26 0c0 2.37-1.38 4.53-4.13 4.53zm-3 55.4V78.79l6.1-1.28v46.35zm49.25-66.32l6.1-1.28v67.6h-6.1v-4.23a19.43 19.43 0 01-13.09 5.51c-12.1 0-20.17-9.74-20.17-23.42 0-14 9.35-23.91 22.34-23.91a27.38 27.38 0 0110.92 2.46zm-11.22 25.78c-9.64 0-15.74 7.67-15.74 18.3 0 10.43 5.8 17.91 15 17.91a17.77 17.77 0 0012-5V86.76a18.6 18.6 0 00-11.26-3.44zM618.43 102c.2 10.13 6.3 17.41 15.74 17.41a24.3 24.3 0 0013.09-3.74l1.18 5.61a27.68 27.68 0 01-14.44 3.86c-13 0-21.75-9.74-21.75-23.42 0-14.17 9-24.21 21.26-24.21 9.93 0 16.43 6.5 16.43 16.63a27.21 27.21 0 01-1 7.19l-30.5.19zm25.39-5.42a12.87 12.87 0 00.1-2c0-6.89-3.74-11.62-10.83-11.62-8.07 0-13.28 6.2-14.27 13.68zm34.44 28.56c-12.5 0-21.75-9.25-21.75-23.72s9.65-23.91 22.24-23.91 21.65 9.25 21.65 23.72-9.64 23.91-22.14 23.91zm.2-42.12c-9.55 0-15.85 7.58-15.85 18.21 0 11 6.4 18.4 15.95 18.4s15.84-7.58 15.84-18.21C694.4 90.4 688 83 678.46 83z"/><path d="M133.15 93.93l-9.89-4.79-9.43 4.68L124 98.68c-.09.06-53.81 27-53.95 27.08V72.84l8.48 4.06v-9.4l-16.5-8v79.54l81.23-40.27-10.07-4.86z" fill="#c3c"/><path class="cls-1" d="M149.68 66.18l-9.39 4.87-26.72 13.41-9.41 4.72-17.61 8.84V45.1l32.6 14.23 9.4-4.63-50.03-22.92v79.54l8.03-3.98 27.28-13.52 9.43-4.68 36.5-18.09-10.08-4.87z"/><path class="cls-1" d="M134.36 67.42a4.2 4.2 0 10-4.2-4.2 4.2 4.2 0 004.2 4.2z"/></g></svg>