<svg xmlns="http://www.w3.org/2000/svg" viewBox="0 0 200 200"><defs><style>.cls-2{fill:#812ce5}</style></defs><g id="PyTorchVideo"><path d="M122.71 107.15l-9.89-4.79-9.43 4.64 10.16 4.87c-.09.06-53.81 27-53.95 27.07V86.05l8.48 4.07v-9.4l-16.5-8v79.54L132.81 112l-10.07-4.87z" fill="#c3c"/><path class="cls-2" d="M139.24 79.4l-9.38 4.87-26.72 13.41-9.42 4.72-17.61 8.84V58.32l32.6 14.23 9.4-4.63L68.08 45v79.54l8.03-3.98 27.28-13.53 9.43-4.67 36.5-18.09-10.08-4.87z"/><path class="cls-2" d="M123.92 80.64a4.2 4.2 0 10-4.2-4.2 4.2 4.2 0 004.2 4.2z"/></g></svg>