<svg height="100" width="100" fill="#812ce5" xmlns="http://www.w3.org/2000/svg" viewBox="0 0 100 100"><path fill="none" d="M-204.7-135h85.7v71.3h-85.7z"/><text transform="translate(-204.667 -68.203)" font-family="'Admira-Font-Outline-NEW-29'" font-size="72"></text><path d="M28 56.3c-1.1 0-2 .9-2 2v10c0 1.1.9 2 2 2s2-.9 2-2v-10c0-1.1-.9-2-2-2zM75.1 85h-10c-1.1 0-2 .9-2 2s.9 2 2 2h10.1c1.1 0 2-.9 2-2s-1-2-2.1-2zm-20 0h-10c-1.1 0-2 .9-2 2s.9 2 2 2h10c1.1 0 2-.9 2-2s-.9-2-2-2zm-18.7-1.2c-2.5-1.4-4.5-3.7-5.6-6.4-.4-1-1.6-1.5-2.6-1.1s-1.5 1.6-1.1 2.6c1.4 3.5 4 6.5 7.3 8.4.3.2.6.3 1 .3.7 0 1.4-.4 1.7-1 .6-1 .3-2.2-.7-2.8zm-7.7-47.4c-1.1-.2-2.1.5-2.3 1.5-.2 1.2-.3 2.3-.3 3.5v6.9c0 1.1.9 2 2 2s2-.9 2-2v-6.9c0-.9.1-1.8.3-2.7.1-1-.6-2.1-1.7-2.3z"/><path d="M84 29.6c.5-1 .2-2.2-.8-2.7-1.7-1-3.6-1.5-5.6-1.8-.5-9-8-16-17.1-16H27.4C17.9 9 10 16.5 10 25.9V58c0 9.4 7.9 17 17.4 17h33.3C70.1 75 78 67.4 78 58V29c1 .3 2.3.7 3.4 1.3.3.2.6.3.9.3.8 0 1.4-.4 1.7-1zM60.6 71H27.4C20.1 71 14 65.2 14 58V25.9C14 18.7 20.1 13 27.4 13h33.3c6.8 0 12.4 5 13.1 12h-1.1c-1.1 0-2 .9-2 2s.9 2 2 2H74v29c0 7.2-6.1 13-13.4 13zM90 53.8c-1.1 0-2 .9-2 2v10c0 1.1.9 2 2 2s2-.9 2-2v-10c0-1.1-.9-2-2-2z"/><path d="M42.6 25c-3.8 0-7.5 1.2-10.5 3.6-.9.7-1 1.9-.3 2.7.4.5 1 .7 1.6.7.4 0 .9-.2 1.3-.5 2.3-1.8 5-2.8 8-2.8 1.1 0 2-.8 2-1.9-.1-1-1-1.8-2.1-1.8zm47.3 48.8c-1.1-.2-2.1.5-2.4 1.5-.6 2.8-2.2 5.4-4.4 7.2-.9.7-1 2-.3 2.8.4.5 1 .7 1.6.7.4 0 .9-.1 1.3-.4 3-2.4 5-5.8 5.8-9.5.2-1-.5-2-1.6-2.3zm.8-38.6c-.4-1-1.6-1.5-2.6-1.1-1 .4-1.5 1.6-1 2.6.6 1.5 1 3.1 1 4.8v4.4c0 1.1.9 2 2 2s2-.9 2-2v-4.4c-.1-2.2-.6-4.3-1.4-6.3zM62.6 25h-10c-1.1 0-2 .9-2 2s.9 2 2 2h10c1.1 0 2-.9 2-2s-.9-2-2-2z"/></svg>