<svg xmlns="http://www.w3.org/2000/svg" viewBox="0 0 628 366"><defs><style>.cls-1{fill:#812ce5;}.cls-2{fill:#c3c;}</style></defs><g id="PyTorchVideo"><path d="M75.68,284.17l-8.36.1v21.65H61v-61.5H76.47c16.24,0,24,7.87,24,19.19C100.48,277.09,90.93,284,75.68,284.17Zm.59-34h-9v28.25l8.76-.2C87.69,278.07,94,273.45,94,263.9,94,255.14,87.79,250.22,76.27,250.22Z"/><path d="M128.53,305.43l-3.64,9.74c-4.14,11-8.47,14.17-14.57,14.17a20.84,20.84,0,0,1-8.75-2.07l1.86-5.61a14.32,14.32,0,0,0,6.89,2c3.45,0,6-1.87,9.25-10.43l3.05-8L105,260.85h6.59l14.17,37.2,13.88-37.2H146Z"/><path d="M166.81,250.32v55.6h-6.3v-55.6H138.86v-5.9h49.59v5.9Z"/><path d="M206.46,307.2c-12.49,0-21.74-9.25-21.74-23.72s9.64-23.91,22.24-23.91,21.64,9.25,21.64,23.72S219,307.2,206.46,307.2Zm.2-42.12c-9.54,0-15.84,7.58-15.84,18.21,0,11,6.39,18.4,15.94,18.4s15.84-7.58,15.84-18.21C222.6,272.46,216.21,265.08,206.66,265.08Z"/><path d="M244.05,305.92H238V260.85l6.1-1.28v9.65c3-5.81,7.38-9.65,13.29-9.65a16.39,16.39,0,0,1,7.87,2.07l-1.57,5.71a13.44,13.44,0,0,0-6.89-2c-4.72,0-9.15,3.54-12.7,11.61Z"/><path d="M289.12,307.2c-13.58,0-22-9.74-22-23.72s9.35-23.91,22.14-23.91a25.65,25.65,0,0,1,14.07,3.84l-1.57,5.51a22.83,22.83,0,0,0-12.5-3.64c-9.74,0-15.84,7.28-15.84,18,0,11,6.4,18.2,15.94,18.2a23.38,23.38,0,0,0,12.5-3.74l1.28,5.61A27,27,0,0,1,289.12,307.2Z"/><path d="M340.19,305.92V276.79c0-7.87-3.14-11.41-9.64-11.41-5.21,0-10.23,2.65-14,6.39v34.15h-6.1V239.6l6.1-1.28v28.44c4.72-4.73,10.63-7.19,15.64-7.19,8.76,0,14.08,5.61,14.08,15.45v30.9Z"/><path class="cls-1" d="M384,305.92h-7.38l-22.54-61.5h6.4l20,55,19.88-55h6.4Z"/><path class="cls-1" d="M417,250.52c-2.75,0-4.13-2.17-4.13-4.53a4.13,4.13,0,1,1,8.26,0C421.08,248.35,419.71,250.52,417,250.52Zm-3.05,55.4V260.85l6.1-1.28v46.35Z"/><path class="cls-1" d="M463.2,239.6l6.1-1.28v67.6h-6.1v-4.23a19.43,19.43,0,0,1-13.09,5.51c-12.1,0-20.17-9.74-20.17-23.42,0-14,9.35-23.91,22.34-23.91a27.34,27.34,0,0,1,10.92,2.46ZM452,265.38c-9.64,0-15.74,7.67-15.74,18.3,0,10.43,5.81,17.91,15,17.91a17.76,17.76,0,0,0,12-5V268.82A18.58,18.58,0,0,0,452,265.38Z"/><path class="cls-1" d="M484.75,284.07c.2,10.14,6.3,17.42,15.75,17.42a24.35,24.35,0,0,0,13.08-3.74l1.19,5.61a27.75,27.75,0,0,1-14.47,3.84c-13,0-21.75-9.74-21.75-23.42,0-14.17,9.06-24.21,21.26-24.21,9.94,0,16.43,6.5,16.43,16.63a27.64,27.64,0,0,1-1,7.19l-30.51.19Zm25.39-5.41a12.94,12.94,0,0,0,.1-2c0-6.88-3.74-11.61-10.82-11.61-8.07,0-13.29,6.2-14.27,13.68Z"/><path class="cls-1" d="M544.58,307.2c-12.49,0-21.74-9.25-21.74-23.72s9.64-23.91,22.23-23.91,21.65,9.25,21.65,23.72S557.08,307.2,544.58,307.2Zm.2-42.12c-9.55,0-15.84,7.58-15.84,18.21,0,11,6.39,18.4,15.94,18.4s15.84-7.58,15.84-18.21C560.72,272.46,554.32,265.08,544.78,265.08Z"/><path class="cls-2" d="M342.27,141.44l-12.62-6.11-12,6,13,6.21L261.77,182V114.53l10.82,5.18v-12L251.53,97.53V199l103.63-51.37-12.85-6.21Z"/><polygon class="cls-1" points="363.36 106.04 351.39 112.25 317.3 129.36 305.29 135.38 282.82 146.66 282.82 124.62 282.82 112.67 282.82 79.15 324.41 97.3 336.4 91.39 272.58 62.16 272.58 107.72 272.58 119.71 272.58 151.8 272.58 163.62 282.82 158.55 317.63 141.29 329.65 135.33 376.21 112.25 363.36 106.04"/><path class="cls-1" d="M343.81,107.62a5.36,5.36,0,1,0-5.35-5.36A5.36,5.36,0,0,0,343.81,107.62Z"/></g></svg>